<svg width="15" height="8" viewBox="0 0 15 8" fill="none" xmlns="http://www.w3.org/2000/svg">
<path d="M14.9999 1.32738C15.0005 1.49815 14.9651 1.66688 14.8965 1.82117C14.828 1.97546 14.7278 2.11139 14.6035 2.21897L8.17557 7.73997C7.98387 7.90809 7.74342 8 7.49528 8C7.24713 8 7.00668 7.90809 6.81498 7.73997L0.387019 2.02465C0.168236 1.83063 0.0306517 1.55183 0.00453305 1.24957C-0.0215856 0.947314 0.065901 0.646367 0.247747 0.412934C0.429592 0.179502 0.690901 0.0327053 0.974188 0.00483747C1.25748 -0.0230303 1.53954 0.0703143 1.75832 0.264336L7.50063 5.37383L13.2429 0.435796C13.4002 0.296018 13.5917 0.207228 13.7948 0.179932C13.9978 0.152637 14.204 0.187977 14.3888 0.281771C14.5736 0.375567 14.7294 0.52389 14.8377 0.709193C14.946 0.894495 15.0023 1.10902 14.9999 1.32738Z" fill="white" fill-opacity="0.54"/>
</svg>
