<svg width="28" height="28" viewBox="0 0 28 28" fill="none" xmlns="http://www.w3.org/2000/svg">
<path opacity="0.1" fill-rule="evenodd" clip-rule="evenodd" d="M0.909424 13.9218C0.909424 6.59542 6.8486 0.65625 14.1749 0.65625C21.5013 0.65625 27.4404 6.59542 27.4404 13.9218C27.4404 21.2481 21.5013 27.1873 14.1749 27.1873C6.8486 27.1873 0.909424 21.2481 0.909424 13.9218Z" fill="white"/>
<path fill-rule="evenodd" clip-rule="evenodd" d="M14.1756 6.84692C12.2541 6.84692 12.013 6.85533 11.2583 6.88967C10.5051 6.92416 9.991 7.0434 9.54115 7.21836C9.07582 7.39907 8.68109 7.6408 8.28784 8.0342C7.89429 8.42745 7.65256 8.82218 7.47127 9.28736C7.29587 9.73736 7.17647 10.2516 7.14257 11.0045C7.10882 11.7592 7.09998 12.0005 7.09998 13.9219C7.09998 15.8434 7.10852 16.0838 7.14272 16.8385C7.17736 17.5917 7.2966 18.1058 7.47141 18.5556C7.65227 19.021 7.894 19.4157 8.2874 19.8089C8.6805 20.2025 9.07523 20.4448 9.54027 20.6255C9.99041 20.8005 10.5047 20.9197 11.2577 20.9542C12.0124 20.9885 12.2534 20.9969 14.1747 20.9969C16.0963 20.9969 16.3367 20.9885 17.0914 20.9542C17.8446 20.9197 18.3593 20.8005 18.8094 20.6255C19.2746 20.4448 19.6687 20.2025 20.0618 19.8089C20.4554 19.4157 20.6971 19.021 20.8784 18.5558C21.0523 18.1058 21.1717 17.5915 21.2071 16.8386C21.241 16.0839 21.2499 15.8434 21.2499 13.9219C21.2499 12.0005 21.241 11.7593 21.2071 11.0047C21.1717 10.2515 21.0523 9.73736 20.8784 9.28751C20.6971 8.82218 20.4554 8.42745 20.0618 8.0342C19.6683 7.64065 19.2747 7.39892 18.809 7.21836C18.3579 7.0434 17.8435 6.92416 17.0903 6.88967C16.3357 6.85533 16.0954 6.84692 14.1734 6.84692H14.1756ZM13.5409 8.12188C13.7292 8.12159 13.9394 8.12188 14.1755 8.12188C16.0646 8.12188 16.2885 8.12866 17.0344 8.16256C17.7243 8.1941 18.0986 8.30937 18.348 8.40621C18.6782 8.53444 18.9136 8.68773 19.1611 8.93536C19.4087 9.18298 19.562 9.41882 19.6905 9.74899C19.7874 9.99809 19.9028 10.3725 19.9342 11.0623C19.9681 11.8081 19.9754 12.0322 19.9754 13.9203C19.9754 15.8084 19.9681 16.0325 19.9342 16.7783C19.9026 17.4681 19.7874 17.8425 19.6905 18.0916C19.5623 18.4218 19.4087 18.6569 19.1611 18.9043C18.9134 19.152 18.6784 19.3053 18.348 19.4335C18.0989 19.5308 17.7243 19.6458 17.0344 19.6773C16.2886 19.7112 16.0646 19.7186 14.1755 19.7186C12.2864 19.7186 12.0625 19.7112 11.3167 19.6773C10.6268 19.6455 10.2525 19.5302 10.0029 19.4334C9.67274 19.3051 9.43691 19.1518 9.18929 18.9042C8.94166 18.6566 8.78837 18.4213 8.65984 18.091C8.563 17.8419 8.44759 17.4675 8.41619 16.7777C8.38229 16.0319 8.37551 15.8078 8.37551 13.9185C8.37551 12.0292 8.38229 11.8063 8.41619 11.0605C8.44774 10.3707 8.563 9.99632 8.65984 9.74692C8.78807 9.41675 8.94166 9.18092 9.18929 8.9333C9.43691 8.68567 9.67274 8.53238 10.0029 8.40385C10.2523 8.30657 10.6268 8.1916 11.3167 8.15991C11.9693 8.13043 12.2223 8.12159 13.5409 8.12011V8.12188ZM17.9521 9.29663C17.4834 9.29663 17.1031 9.67647 17.1031 10.1453C17.1031 10.6141 17.4834 10.9943 17.9521 10.9943C18.4209 10.9943 18.8011 10.6141 18.8011 10.1453C18.8011 9.67662 18.4209 9.29663 17.9521 9.29663ZM14.1756 10.2886C12.1691 10.2886 10.5423 11.9154 10.5423 13.9219C10.5423 15.9284 12.1691 17.5545 14.1756 17.5545C16.1821 17.5545 17.8083 15.9284 17.8083 13.9219C17.8083 11.9154 16.1821 10.2886 14.1756 10.2886ZM14.1756 11.5636C15.478 11.5636 16.5339 12.6194 16.5339 13.9219C16.5339 15.2243 15.478 16.2803 14.1756 16.2803C12.873 16.2803 11.8172 15.2243 11.8172 13.9219C11.8172 12.6194 12.873 11.5636 14.1756 11.5636Z" fill="white"/>
</svg>
