<svg width="27" height="28" viewBox="0 0 27 28" fill="none" xmlns="http://www.w3.org/2000/svg">
<path opacity="0.1" fill-rule="evenodd" clip-rule="evenodd" d="M0.127808 13.9218C0.127808 6.59542 6.06698 0.65625 13.3933 0.65625C20.7197 0.65625 26.6588 6.59542 26.6588 13.9218C26.6588 21.2481 20.7197 27.1873 13.3933 27.1873C6.06698 27.1873 0.127808 21.2481 0.127808 13.9218Z" fill="white"/>
<path fill-rule="evenodd" clip-rule="evenodd" d="M20.4682 13.9121C20.4682 14.3905 20.4195 14.8683 20.3239 15.3341C20.2306 15.7887 20.0924 16.2351 19.9114 16.6619C19.7345 17.081 19.5151 17.485 19.2588 17.8617C19.0062 18.236 18.7153 18.5872 18.3958 18.9073C18.0755 19.2261 17.7231 19.5162 17.349 19.7698C16.971 20.0243 16.5665 20.2434 16.1471 20.4211C15.7197 20.6011 15.2723 20.7391 14.818 20.8323C14.3517 20.9282 13.8721 20.9772 13.393 20.9772C12.9135 20.9772 12.434 20.9282 11.9683 20.8323C11.5133 20.7391 11.0659 20.6011 10.6389 20.4211C10.2195 20.2434 9.81456 20.0243 9.43662 19.7698C9.06247 19.5162 8.71009 19.2261 8.39053 18.9073C8.07063 18.5872 7.77972 18.236 7.52684 17.8617C7.27188 17.485 7.05214 17.081 6.87458 16.6619C6.69353 16.2351 6.55502 15.7887 6.46139 15.3341C6.36674 14.8683 6.31836 14.3905 6.31836 13.9121C6.31836 13.4332 6.36671 12.9544 6.46142 12.4897C6.55504 12.035 6.69356 11.5879 6.87461 11.1619C7.05217 10.7424 7.27191 10.3381 7.52687 9.96138C7.77975 9.58675 8.07066 9.23623 8.39055 8.91574C8.71012 8.59697 9.0625 8.30756 9.43665 8.05435C9.81459 7.79871 10.2195 7.57968 10.6389 7.40165C11.0659 7.22119 11.5133 7.08288 11.9683 6.99044C12.434 6.89523 12.9135 6.84692 13.393 6.84692C13.8722 6.84692 14.3517 6.89523 14.8181 6.99044C15.2724 7.08291 15.7197 7.22122 16.1471 7.40165C16.5665 7.57965 16.9711 7.79871 17.349 8.05435C17.7232 8.30756 18.0756 8.59697 18.3958 8.91574C18.7154 9.23623 19.0063 9.58675 19.2588 9.96138C19.5151 10.3381 19.7345 10.7424 19.9114 11.1619C20.0924 11.5879 20.2306 12.035 20.3239 12.4897C20.4195 12.9544 20.4682 13.4332 20.4682 13.9121ZM10.815 8.45485C9.13013 9.24935 7.87261 10.7997 7.48049 12.6681C7.63977 12.6694 10.1576 12.7012 13.0585 11.9315C12.0128 10.0762 10.8955 8.56217 10.815 8.45485ZM13.5591 12.8606C10.4481 13.7906 7.46287 13.7237 7.35579 13.7196C7.35404 13.7844 7.35094 13.8472 7.35094 13.912C7.35094 15.462 7.93652 16.875 8.89901 17.9434C8.89693 17.9403 10.5504 15.0111 13.811 13.9583C13.8897 13.9321 13.9699 13.9086 14.0493 13.8858C13.8977 13.5429 13.7322 13.1993 13.5591 12.8606ZM17.3832 9.38389C16.3195 8.44725 14.9227 7.87912 13.393 7.87912C12.902 7.87912 12.4256 7.93846 11.9693 8.04815C12.0598 8.1696 13.1947 9.67299 14.228 11.5676C16.5078 10.7141 17.3683 9.40595 17.3832 9.38389ZM14.4612 14.8856C14.4477 14.89 14.4343 14.8939 14.4211 14.8987C10.8562 16.1397 9.69207 18.6406 9.67948 18.6679C10.7052 19.4644 11.9918 19.945 13.393 19.945C14.2297 19.945 15.0267 19.7749 15.7519 19.4669C15.6624 18.9397 15.3114 17.092 14.4612 14.8856ZM16.7693 18.9156C18.1259 18.0014 19.0895 16.5498 19.3582 14.8683C19.2339 14.8283 17.5435 14.2939 15.5933 14.6061C16.3858 16.7809 16.7078 18.552 16.7693 18.9156ZM14.693 12.4666C14.8332 12.7543 14.9691 13.0471 15.0944 13.3414C15.139 13.447 15.1826 13.5505 15.225 13.654C17.3006 13.3932 19.3455 13.832 19.4329 13.8499C19.4191 12.4197 18.9067 11.107 18.059 10.0794C18.0476 10.0955 17.0785 11.4937 14.693 12.4666Z" fill="white"/>
</svg>
