<svg width="28" height="28" viewBox="0 0 28 28" fill="none" xmlns="http://www.w3.org/2000/svg">
<path opacity="0.1" fill-rule="evenodd" clip-rule="evenodd" d="M0.564514 13.9218C0.564514 6.59542 6.50369 0.65625 13.83 0.65625C21.1564 0.65625 27.0955 6.59542 27.0955 13.9218C27.0955 21.2481 21.1564 27.1873 13.83 27.1873C6.50369 27.1873 0.564514 21.2481 0.564514 13.9218Z" fill="white"/>
<path fill-rule="evenodd" clip-rule="evenodd" d="M19.3582 9.36149C19.9671 9.52856 20.4466 10.0208 20.6093 10.646C20.905 11.779 20.905 14.143 20.905 14.143C20.905 14.143 20.905 16.5069 20.6093 17.64C20.4466 18.2651 19.9671 18.7574 19.3582 18.9245C18.2549 19.2281 13.8301 19.2281 13.8301 19.2281C13.8301 19.2281 9.40525 19.2281 8.30181 18.9245C7.69296 18.7574 7.21347 18.2651 7.05075 17.64C6.75513 16.5069 6.75513 14.143 6.75513 14.143C6.75513 14.143 6.75513 11.779 7.05075 10.646C7.21347 10.0208 7.69296 9.52856 8.30181 9.36149C9.40525 9.05786 13.8301 9.05786 13.8301 9.05786C13.8301 9.05786 18.2549 9.05786 19.3582 9.36149ZM12.5035 12.1531V16.5749L16.041 14.3641L12.5035 12.1531Z" fill="white"/>
</svg>
